<svg xmlns="http://www.w3.org/2000/svg" viewBox="0 0 32 32" role="img" aria-label="jeppes-bodega">
  <defs>
    <linearGradient id="bg" x1="4" y1="2" x2="28" y2="30" gradientUnits="userSpaceOnUse">
      <stop offset="0%" stop-color="#3998f2" />
      <stop offset="45%" stop-color="#48c6e8" />
      <stop offset="100%" stop-color="#2f766d" />
    </linearGradient>
    <linearGradient id="shine" x1="8" y1="6" x2="20" y2="18" gradientUnits="userSpaceOnUse">
      <stop offset="0%" stop-color="#fff" stop-opacity="0.45" />
      <stop offset="100%" stop-color="#fff" stop-opacity="0" />
    </linearGradient>
  </defs>
  <rect width="32" height="32" rx="8" fill="url(#bg)" />
  <ellipse cx="11" cy="9" rx="7" ry="5" fill="url(#shine)" />
  <path
    fill="none"
    stroke="#fff"
    stroke-width="2.2"
    stroke-linecap="round"
    stroke-linejoin="round"
    opacity="0.92"
    d="M5 21c3-2.5 6-2.5 9 0s6 2.5 9 0"
  />
  <path
    fill="none"
    stroke="#fff"
    stroke-width="1.8"
    stroke-linecap="round"
    stroke-linejoin="round"
    opacity="0.72"
    d="M5 25c4-2 7-2 11 0s7 2 11 0"
  />
  <g transform="translate(18 8) rotate(-12)">
    <ellipse cx="5" cy="4" rx="5.2" ry="3.1" fill="#fff" />
    <path fill="#fff" d="M9.8 4 13.5 1.8v4.4z" />
    <circle cx="2.4" cy="3.5" r="0.85" fill="#2f766d" />
  </g>
  <circle cx="8" cy="14" r="1.1" fill="#fff" opacity="0.55" />
  <circle cx="11.5" cy="16" r="0.7" fill="#fff" opacity="0.4" />
</svg>
